<?xml version="1.0" encoding="utf-8"?>
<!-- Generator: Adobe Illustrator 16.0.0, SVG Export Plug-In . SVG Version: 6.00 Build 0)  -->
<!DOCTYPE svg PUBLIC "-//W3C//DTD SVG 1.1//EN" "http://www.w3.org/Graphics/SVG/1.1/DTD/svg11.dtd">
<svg version="1.1" id="Layer_1" xmlns="http://www.w3.org/2000/svg" xmlns:xlink="http://www.w3.org/1999/xlink" x="0px" y="0px"
	 width="156px" height="156px" viewBox="0 0 156 156" enable-background="new 0 0 156 156" xml:space="preserve">
<g>
	<path fill="#A5FFD6" d="M117.104,34.288c0.514-1.397,1.694-2.429,3.588-3.141c1.283-0.467,2.941-0.878,4.959-1.273
		c2.05-0.373,3.801-0.61,5.209-0.713v-5.425h-50.1c-4.6,0-8.902,0.466-12.91,1.407c-4.041,0.938-7.7,2.449-10.952,4.545
		c-3.165,2.049-5.695,4.714-7.573,7.99c-1.895,3.307-2.823,7.264-2.823,11.896c0,4.175,0.638,7.893,1.888,11.088
		c1.292,3.214,3.195,6.005,5.679,8.338c2.3,2.202,5.038,4.104,8.254,5.718c3.225,1.611,6.758,2.953,10.655,4.082
		c-5.367,7.099-9.82,13.063-13.351,17.896c-3.569,4.838-7.91,10.727-13.057,17.672c-2.231,3.059-4.273,5.319-6.084,6.778
		c-1.793,1.444-3.608,2.623-5.39,3.545c-1.31,0.669-2.978,1.179-4.962,1.528c-1.996,0.353-3.654,0.568-4.997,0.609v5.437H54.37
		c6.495-10.146,12.345-18.914,17.561-26.31c5.223-7.397,10.897-15.016,16.992-22.859h11.125v34.41c0,1.789-0.277,3.359-0.83,4.693
		c-0.574,1.354-1.773,2.387-3.607,3.1c-0.913,0.352-2.516,0.679-4.826,1c-2.276,0.312-4.234,0.486-5.807,0.529v5.437h45.885v-5.437
		c-1.215-0.097-2.988-0.271-5.299-0.529c-2.328-0.256-3.945-0.598-4.871-1c-1.532-0.652-2.627-1.623-3.303-2.907
		c-0.718-1.28-1.05-2.903-1.05-4.888V39.019C116.34,37.231,116.588,35.662,117.104,34.288z M100.048,76.492H90.019
		c-7.049,0-12.891-2.231-17.592-6.748c-4.701-4.505-7.039-10.634-7.039-18.363c0-6.572,1.881-11.771,5.658-15.615
		c3.789-3.855,9.104-5.767,15.996-5.767h13.006V76.492L100.048,76.492z"/>
</g>
</svg>
